<svg width="48" height="43" viewBox="0 0 48 43" fill="none" xmlns="http://www.w3.org/2000/svg">
<path fill-rule="evenodd" clip-rule="evenodd" d="M13.8983 0L37.6986 1.07235L47.3344 22.6538L33.7401 42.3779L9.81038 40.8331L0 17.4497L13.8983 0ZM31.3471 12.4401L14.0982 20.0368L28.8449 31.5301L31.3471 12.4401ZM29.3501 8.63347L15.5654 2.65052L12.6697 15.2299L29.3501 8.63347ZM25.8561 34.422L10.8748 23.6385L11.2372 38.2507L25.8561 34.422ZM44.9415 22.6062L34.7325 12.1637L32.0379 32.2443L44.9415 22.6062ZM29.3686 36.7708L16.7338 40.0996L31.5923 41.0586L29.3686 36.7708ZM42.9465 27.3441L31.8865 35.6492L34.0841 39.9785L42.9465 27.3441ZM37.715 4.0877L35.5669 8.533L43.5627 16.726L37.715 4.0877ZM35.0385 1.96047L20.9977 1.38596L32.5797 6.49254L35.0385 1.96047ZM11.8479 4.01615L2.01324 16.5343L8.58852 17.9382L11.8479 4.01615ZM8.19205 20.3938L1.58507 18.9837L8.47894 35.355L8.19205 20.3938Z" fill="black"/>
</svg>
